<?xml version="1.0" standalone="no"?><!DOCTYPE svg PUBLIC "-//W3C//DTD SVG 1.1//EN" "http://www.w3.org/Graphics/SVG/1.1/DTD/svg11.dtd"><svg xmlns="http://www.w3.org/2000/svg" version="1.1" width="199.4px" height="14.8px" viewBox="0 -3 199.4 14.8" style="top:-3px">  <desc>laboratoriodemedios educacionbogota gov co</desc>  <defs/>  <g id="Polygon5945">    <path d="M 0.6 6 L 0.6 0 L 1.7 0 L 1.7 6 L 0.6 6 Z M 4.5 6.1 C 4.1 6.1 3.8 6 3.6 5.9 C 3.3 5.7 3.1 5.5 2.9 5.2 C 2.8 4.9 2.7 4.6 2.7 4.2 C 2.7 3.9 2.8 3.5 2.9 3.3 C 3.1 3 3.3 2.7 3.5 2.6 C 3.8 2.4 4.1 2.3 4.5 2.3 C 4.7 2.3 5 2.4 5.2 2.5 C 5.4 2.6 5.6 2.7 5.7 2.9 C 5.72 2.87 5.7 2.4 5.7 2.4 L 6.8 2.4 L 6.8 6 L 5.7 6 C 5.7 6 5.72 5.55 5.7 5.5 C 5.6 5.7 5.4 5.9 5.2 6 C 4.9 6.1 4.7 6.1 4.5 6.1 Z M 4.8 5.2 C 5 5.2 5.1 5.2 5.3 5.1 C 5.4 5 5.5 4.9 5.6 4.7 C 5.7 4.6 5.7 4.4 5.7 4.2 C 5.7 4 5.7 3.9 5.6 3.7 C 5.5 3.6 5.4 3.5 5.3 3.4 C 5.1 3.3 5 3.2 4.8 3.2 C 4.6 3.2 4.4 3.3 4.3 3.4 C 4.1 3.5 4 3.6 3.9 3.7 C 3.9 3.9 3.8 4 3.8 4.2 C 3.8 4.4 3.9 4.6 3.9 4.7 C 4 4.9 4.1 5 4.3 5.1 C 4.4 5.2 4.6 5.2 4.8 5.2 Z M 10.4 6.1 C 10.1 6.1 9.9 6.1 9.7 6 C 9.5 5.9 9.3 5.7 9.1 5.5 C 9.13 5.55 9.1 6 9.1 6 L 8.1 6 L 8.1 0 L 9.1 0 C 9.1 0 9.13 2.87 9.1 2.9 C 9.3 2.7 9.5 2.6 9.7 2.5 C 9.9 2.4 10.1 2.3 10.4 2.3 C 10.7 2.3 11 2.4 11.3 2.6 C 11.6 2.7 11.8 3 11.9 3.3 C 12.1 3.5 12.2 3.9 12.2 4.2 C 12.2 4.6 12.1 4.9 11.9 5.2 C 11.8 5.5 11.5 5.7 11.3 5.9 C 11 6.1 10.7 6.1 10.4 6.1 Z M 10.1 5.2 C 10.3 5.2 10.4 5.2 10.6 5.1 C 10.7 5 10.8 4.9 10.9 4.7 C 11 4.6 11 4.4 11 4.2 C 11 4 11 3.9 10.9 3.7 C 10.8 3.6 10.7 3.5 10.6 3.4 C 10.4 3.3 10.3 3.2 10.1 3.2 C 9.9 3.2 9.7 3.3 9.6 3.4 C 9.4 3.5 9.3 3.6 9.2 3.7 C 9.1 3.9 9.1 4 9.1 4.2 C 9.1 4.4 9.1 4.6 9.2 4.7 C 9.3 4.9 9.4 5 9.6 5.1 C 9.7 5.2 9.9 5.2 10.1 5.2 Z M 14.9 6.1 C 14.5 6.1 14.2 6.1 13.9 5.9 C 13.5 5.7 13.3 5.5 13.1 5.2 C 12.9 4.9 12.8 4.6 12.8 4.2 C 12.8 3.9 12.9 3.5 13.1 3.2 C 13.3 3 13.5 2.7 13.9 2.6 C 14.2 2.4 14.5 2.3 14.9 2.3 C 15.3 2.3 15.7 2.4 16 2.6 C 16.3 2.7 16.6 3 16.8 3.2 C 16.9 3.5 17 3.9 17 4.2 C 17 4.6 16.9 4.9 16.8 5.2 C 16.6 5.5 16.3 5.7 16 5.9 C 15.7 6.1 15.3 6.1 14.9 6.1 Z M 14.9 5.2 C 15.1 5.2 15.3 5.2 15.4 5.1 C 15.6 5 15.7 4.9 15.8 4.7 C 15.9 4.6 15.9 4.4 15.9 4.2 C 15.9 4 15.9 3.9 15.8 3.7 C 15.7 3.6 15.6 3.5 15.4 3.4 C 15.3 3.3 15.1 3.2 14.9 3.2 C 14.7 3.2 14.6 3.3 14.4 3.4 C 14.3 3.5 14.2 3.6 14.1 3.7 C 14 3.9 14 4 14 4.2 C 14 4.4 14 4.6 14.1 4.7 C 14.2 4.9 14.3 5 14.4 5.1 C 14.6 5.2 14.7 5.2 14.9 5.2 Z M 18 6 L 18 2.4 L 19 2.4 C 19 2.4 19.05 2.95 19 3 C 19.2 2.7 19.3 2.6 19.5 2.5 C 19.7 2.4 19.9 2.3 20.2 2.3 C 20.3 2.3 20.4 2.3 20.5 2.4 C 20.7 2.4 20.8 2.5 20.9 2.5 C 20.9 2.5 20.4 3.4 20.4 3.4 C 20.4 3.4 20.3 3.3 20.2 3.3 C 20.1 3.3 20 3.3 19.9 3.3 C 19.7 3.3 19.6 3.3 19.5 3.4 C 19.3 3.4 19.2 3.5 19.2 3.6 C 19.1 3.8 19 3.9 19 4 C 19.05 4.02 19 6 19 6 L 18 6 Z M 22.9 6.1 C 22.6 6.1 22.3 6 22 5.9 C 21.8 5.7 21.5 5.5 21.4 5.2 C 21.2 4.9 21.1 4.6 21.1 4.2 C 21.1 3.9 21.2 3.5 21.4 3.3 C 21.5 3 21.7 2.7 22 2.6 C 22.3 2.4 22.6 2.3 22.9 2.3 C 23.2 2.3 23.4 2.4 23.6 2.5 C 23.9 2.6 24 2.7 24.2 2.9 C 24.17 2.87 24.2 2.4 24.2 2.4 L 25.2 2.4 L 25.2 6 L 24.2 6 C 24.2 6 24.17 5.55 24.2 5.5 C 24 5.7 23.8 5.9 23.6 6 C 23.4 6.1 23.2 6.1 22.9 6.1 Z M 23.2 5.2 C 23.4 5.2 23.6 5.2 23.7 5.1 C 23.9 5 24 4.9 24.1 4.7 C 24.2 4.6 24.2 4.4 24.2 4.2 C 24.2 4 24.2 3.9 24.1 3.7 C 24 3.6 23.9 3.5 23.7 3.4 C 23.6 3.3 23.4 3.2 23.2 3.2 C 23.1 3.2 22.9 3.3 22.7 3.4 C 22.6 3.5 22.5 3.6 22.4 3.7 C 22.3 3.9 22.3 4 22.3 4.2 C 22.3 4.4 22.3 4.6 22.4 4.7 C 22.5 4.9 22.6 5 22.7 5.1 C 22.9 5.2 23.1 5.2 23.2 5.2 Z M 27.7 6.1 C 27.3 6.1 27.1 6 26.9 5.8 C 26.7 5.6 26.6 5.2 26.6 4.8 C 26.57 4.84 26.6 3.3 26.6 3.3 L 26.1 3.3 L 26.1 2.4 L 26.6 2.4 L 26.6 1.1 L 27.6 1.1 L 27.6 2.4 L 28.4 2.4 L 28.4 3.3 L 27.6 3.3 C 27.6 3.3 27.64 4.76 27.6 4.8 C 27.6 4.9 27.7 5 27.7 5.1 C 27.8 5.1 27.9 5.2 28 5.2 C 28.1 5.2 28.2 5.1 28.3 5.1 C 28.3 5.1 28.5 5.9 28.5 5.9 C 28.4 6 28.3 6 28.1 6.1 C 28 6.1 27.8 6.1 27.7 6.1 Z M 31.3 6.1 C 30.9 6.1 30.5 6.1 30.2 5.9 C 29.9 5.7 29.6 5.5 29.4 5.2 C 29.3 4.9 29.2 4.6 29.2 4.2 C 29.2 3.9 29.3 3.5 29.4 3.2 C 29.6 3 29.9 2.7 30.2 2.6 C 30.5 2.4 30.9 2.3 31.3 2.3 C 31.7 2.3 32 2.4 32.3 2.6 C 32.7 2.7 32.9 3 33.1 3.2 C 33.3 3.5 33.4 3.9 33.4 4.2 C 33.4 4.6 33.3 4.9 33.1 5.2 C 32.9 5.5 32.7 5.7 32.3 5.9 C 32 6.1 31.7 6.1 31.3 6.1 Z M 31.3 5.2 C 31.4 5.2 31.6 5.2 31.8 5.1 C 31.9 5 32 4.9 32.1 4.7 C 32.2 4.6 32.2 4.4 32.2 4.2 C 32.2 4 32.2 3.9 32.1 3.7 C 32 3.6 31.9 3.5 31.8 3.4 C 31.6 3.3 31.4 3.2 31.3 3.2 C 31.1 3.2 30.9 3.3 30.8 3.4 C 30.6 3.5 30.5 3.6 30.4 3.7 C 30.3 3.9 30.3 4 30.3 4.2 C 30.3 4.4 30.3 4.6 30.4 4.7 C 30.5 4.9 30.6 5 30.8 5.1 C 30.9 5.2 31.1 5.2 31.3 5.2 Z M 34.3 6 L 34.3 2.4 L 35.4 2.4 C 35.4 2.4 35.38 2.95 35.4 3 C 35.5 2.7 35.7 2.6 35.9 2.5 C 36.1 2.4 36.3 2.3 36.5 2.3 C 36.6 2.3 36.7 2.3 36.9 2.4 C 37 2.4 37.1 2.5 37.2 2.5 C 37.2 2.5 36.8 3.4 36.8 3.4 C 36.7 3.4 36.6 3.3 36.5 3.3 C 36.4 3.3 36.3 3.3 36.2 3.3 C 36.1 3.3 35.9 3.3 35.8 3.4 C 35.7 3.4 35.6 3.5 35.5 3.6 C 35.4 3.8 35.4 3.9 35.4 4 C 35.38 4.02 35.4 6 35.4 6 L 34.3 6 Z M 37.8 6 L 37.8 2.4 L 38.9 2.4 L 38.9 6 L 37.8 6 Z M 38.3 1.7 C 38.2 1.7 38.1 1.7 38 1.6 C 37.9 1.5 37.9 1.5 37.8 1.4 C 37.7 1.3 37.7 1.2 37.7 1 C 37.7 0.9 37.7 0.8 37.8 0.7 C 37.9 0.6 37.9 0.6 38 0.5 C 38.1 0.4 38.2 0.4 38.3 0.4 C 38.5 0.4 38.6 0.4 38.7 0.5 C 38.8 0.6 38.8 0.6 38.9 0.7 C 39 0.8 39 0.9 39 1 C 39 1.2 39 1.3 38.9 1.4 C 38.8 1.5 38.8 1.5 38.7 1.6 C 38.6 1.7 38.5 1.7 38.3 1.7 Z M 41.9 6.1 C 41.5 6.1 41.2 6.1 40.9 5.9 C 40.6 5.7 40.3 5.5 40.1 5.2 C 39.9 4.9 39.8 4.6 39.8 4.2 C 39.8 3.9 39.9 3.5 40.1 3.2 C 40.3 3 40.5 2.7 40.9 2.6 C 41.2 2.4 41.5 2.3 41.9 2.3 C 42.3 2.3 42.7 2.4 43 2.6 C 43.3 2.7 43.6 3 43.8 3.2 C 43.9 3.5 44 3.9 44 4.2 C 44 4.6 43.9 4.9 43.8 5.2 C 43.6 5.5 43.3 5.7 43 5.9 C 42.7 6.1 42.3 6.1 41.9 6.1 Z M 41.9 5.2 C 42.1 5.2 42.3 5.2 42.4 5.1 C 42.6 5 42.7 4.9 42.8 4.7 C 42.9 4.6 42.9 4.4 42.9 4.2 C 42.9 4 42.9 3.9 42.8 3.7 C 42.7 3.6 42.6 3.5 42.4 3.4 C 42.3 3.3 42.1 3.2 41.9 3.2 C 41.8 3.2 41.6 3.3 41.4 3.4 C 41.3 3.5 41.2 3.6 41.1 3.7 C 41 3.9 41 4 41 4.2 C 41 4.4 41 4.6 41.1 4.7 C 41.2 4.9 41.3 5 41.4 5.1 C 41.6 5.2 41.8 5.2 41.9 5.2 Z M 46.5 6.1 C 46.2 6.1 45.9 6.1 45.6 5.9 C 45.3 5.7 45.1 5.5 45 5.2 C 44.8 4.9 44.7 4.6 44.7 4.2 C 44.7 3.9 44.8 3.5 44.9 3.3 C 45.1 3 45.3 2.7 45.6 2.6 C 45.8 2.4 46.2 2.3 46.5 2.3 C 46.8 2.3 47 2.4 47.2 2.5 C 47.4 2.6 47.6 2.7 47.7 2.9 C 47.74 2.87 47.7 0 47.7 0 L 48.8 0 L 48.8 6 L 47.7 6 C 47.7 6 47.74 5.55 47.7 5.5 C 47.6 5.7 47.4 5.9 47.2 6 C 47 6.1 46.7 6.1 46.5 6.1 Z M 46.8 5.2 C 47 5.2 47.2 5.2 47.3 5.1 C 47.4 5 47.6 4.9 47.6 4.7 C 47.7 4.6 47.8 4.4 47.8 4.2 C 47.8 4 47.7 3.9 47.6 3.7 C 47.6 3.6 47.4 3.5 47.3 3.4 C 47.2 3.3 47 3.2 46.8 3.2 C 46.6 3.2 46.5 3.3 46.3 3.4 C 46.2 3.5 46.1 3.6 46 3.7 C 45.9 3.9 45.8 4 45.8 4.2 C 45.8 4.4 45.9 4.6 46 4.7 C 46 4.9 46.2 5 46.3 5.1 C 46.4 5.2 46.6 5.2 46.8 5.2 Z M 51.8 6.1 C 51.4 6.1 51.1 6 50.8 5.9 C 50.5 5.7 50.2 5.5 50 5.2 C 49.8 4.9 49.8 4.6 49.8 4.2 C 49.8 4 49.8 3.7 49.9 3.5 C 50 3.3 50.2 3 50.3 2.9 C 50.5 2.7 50.7 2.6 51 2.5 C 51.2 2.4 51.5 2.3 51.8 2.3 C 52.1 2.3 52.5 2.4 52.7 2.6 C 53 2.7 53.2 2.9 53.4 3.2 C 53.5 3.5 53.6 3.8 53.6 4.2 C 53.6 4.2 53.6 4.2 53.6 4.2 C 53.6 4.3 53.6 4.3 53.6 4.4 C 53.6 4.4 50.9 4.4 50.9 4.4 C 50.9 4.5 50.9 4.7 51 4.8 C 51.1 5 51.2 5.1 51.3 5.2 C 51.5 5.2 51.7 5.3 51.9 5.3 C 52 5.3 52.2 5.2 52.4 5.2 C 52.5 5.1 52.6 5 52.8 4.8 C 52.8 4.8 53.5 5.2 53.5 5.2 C 53.4 5.5 53.1 5.7 52.8 5.9 C 52.5 6.1 52.2 6.1 51.8 6.1 Z M 50.9 3.8 C 50.9 3.8 52.6 3.8 52.6 3.8 C 52.5 3.6 52.5 3.5 52.4 3.4 C 52.3 3.3 52.2 3.2 52.1 3.2 C 52 3.1 51.9 3.1 51.7 3.1 C 51.6 3.1 51.4 3.1 51.3 3.2 C 51.2 3.2 51.1 3.3 51 3.4 C 51 3.5 50.9 3.6 50.9 3.8 Z M 54.6 6 L 54.6 2.4 L 55.7 2.4 C 55.7 2.4 55.66 2.83 55.7 2.8 C 55.8 2.7 56 2.5 56.2 2.4 C 56.4 2.4 56.6 2.3 56.8 2.3 C 57 2.3 57.3 2.4 57.5 2.5 C 57.7 2.6 57.9 2.8 58 3 C 58.2 2.8 58.3 2.6 58.5 2.5 C 58.7 2.4 59 2.3 59.2 2.3 C 59.5 2.3 59.7 2.4 59.9 2.5 C 60.1 2.6 60.3 2.7 60.4 2.9 C 60.5 3.1 60.6 3.4 60.6 3.6 C 60.57 3.64 60.6 6 60.6 6 L 59.5 6 C 59.5 6 59.49 3.93 59.5 3.9 C 59.5 3.7 59.4 3.5 59.3 3.4 C 59.2 3.2 59 3.2 58.8 3.2 C 58.7 3.2 58.6 3.2 58.5 3.3 C 58.3 3.3 58.3 3.4 58.2 3.5 C 58.1 3.6 58.1 3.7 58.1 3.8 C 58.11 3.83 58.1 6 58.1 6 L 57 6 C 57 6 57.04 3.91 57 3.9 C 57 3.7 57 3.5 56.9 3.4 C 56.7 3.2 56.6 3.2 56.4 3.2 C 56.2 3.2 56.1 3.2 56 3.3 C 55.9 3.3 55.8 3.4 55.8 3.5 C 55.7 3.6 55.7 3.7 55.7 3.8 C 55.66 3.84 55.7 6 55.7 6 L 54.6 6 Z M 63.5 6.1 C 63.1 6.1 62.8 6 62.5 5.9 C 62.1 5.7 61.9 5.5 61.7 5.2 C 61.5 4.9 61.5 4.6 61.5 4.2 C 61.5 4 61.5 3.7 61.6 3.5 C 61.7 3.3 61.9 3 62 2.9 C 62.2 2.7 62.4 2.6 62.7 2.5 C 62.9 2.4 63.2 2.3 63.4 2.3 C 63.8 2.3 64.1 2.4 64.4 2.6 C 64.7 2.7 64.9 2.9 65.1 3.2 C 65.2 3.5 65.3 3.8 65.3 4.2 C 65.3 4.2 65.3 4.2 65.3 4.2 C 65.3 4.3 65.3 4.3 65.3 4.4 C 65.3 4.4 62.6 4.4 62.6 4.4 C 62.6 4.5 62.6 4.7 62.7 4.8 C 62.8 5 62.9 5.1 63 5.2 C 63.2 5.2 63.4 5.3 63.6 5.3 C 63.7 5.3 63.9 5.2 64.1 5.2 C 64.2 5.1 64.3 5 64.5 4.8 C 64.5 4.8 65.2 5.2 65.2 5.2 C 65.1 5.5 64.8 5.7 64.5 5.9 C 64.2 6.1 63.9 6.1 63.5 6.1 Z M 62.6 3.8 C 62.6 3.8 64.3 3.8 64.3 3.8 C 64.2 3.6 64.2 3.5 64.1 3.4 C 64 3.3 63.9 3.2 63.8 3.2 C 63.7 3.1 63.6 3.1 63.4 3.1 C 63.3 3.1 63.1 3.1 63 3.2 C 62.9 3.2 62.8 3.3 62.7 3.4 C 62.7 3.5 62.6 3.6 62.6 3.8 Z M 67.8 6.1 C 67.5 6.1 67.2 6.1 66.9 5.9 C 66.6 5.7 66.4 5.5 66.3 5.2 C 66.1 4.9 66 4.6 66 4.2 C 66 3.9 66.1 3.5 66.2 3.3 C 66.4 3 66.6 2.7 66.9 2.6 C 67.2 2.4 67.5 2.3 67.8 2.3 C 68.1 2.3 68.3 2.4 68.5 2.5 C 68.7 2.6 68.9 2.7 69 2.9 C 69.04 2.87 69 0 69 0 L 70.1 0 L 70.1 6 L 69 6 C 69 6 69.04 5.55 69 5.5 C 68.9 5.7 68.7 5.9 68.5 6 C 68.3 6.1 68 6.1 67.8 6.1 Z M 68.1 5.2 C 68.3 5.2 68.5 5.2 68.6 5.1 C 68.7 5 68.9 4.9 68.9 4.7 C 69 4.6 69.1 4.4 69.1 4.2 C 69.1 4 69 3.9 68.9 3.7 C 68.9 3.6 68.7 3.5 68.6 3.4 C 68.5 3.3 68.3 3.2 68.1 3.2 C 67.9 3.2 67.8 3.3 67.6 3.4 C 67.5 3.5 67.4 3.6 67.3 3.7 C 67.2 3.9 67.1 4 67.1 4.2 C 67.1 4.4 67.2 4.6 67.3 4.7 C 67.4 4.9 67.5 5 67.6 5.1 C 67.8 5.2 67.9 5.2 68.1 5.2 Z M 71.4 6 L 71.4 2.4 L 72.5 2.4 L 72.5 6 L 71.4 6 Z M 71.9 1.7 C 71.8 1.7 71.7 1.7 71.6 1.6 C 71.5 1.5 71.4 1.5 71.4 1.4 C 71.3 1.3 71.3 1.2 71.3 1 C 71.3 0.9 71.3 0.8 71.4 0.7 C 71.4 0.6 71.5 0.6 71.6 0.5 C 71.7 0.4 71.8 0.4 71.9 0.4 C 72 0.4 72.1 0.4 72.2 0.5 C 72.3 0.6 72.4 0.6 72.5 0.7 C 72.5 0.8 72.6 0.9 72.6 1 C 72.6 1.2 72.5 1.3 72.5 1.4 C 72.4 1.5 72.3 1.5 72.2 1.6 C 72.1 1.7 72 1.7 71.9 1.7 Z M 75.5 6.1 C 75.1 6.1 74.8 6.1 74.4 5.9 C 74.1 5.7 73.9 5.5 73.7 5.2 C 73.5 4.9 73.4 4.6 73.4 4.2 C 73.4 3.9 73.5 3.5 73.7 3.2 C 73.9 3 74.1 2.7 74.4 2.6 C 74.8 2.4 75.1 2.3 75.5 2.3 C 75.9 2.3 76.3 2.4 76.6 2.6 C 76.9 2.7 77.1 3 77.3 3.2 C 77.5 3.5 77.6 3.9 77.6 4.2 C 77.6 4.6 77.5 4.9 77.3 5.2 C 77.1 5.5 76.9 5.7 76.6 5.9 C 76.3 6.1 75.9 6.1 75.5 6.1 Z M 75.5 5.2 C 75.7 5.2 75.9 5.2 76 5.1 C 76.2 5 76.3 4.9 76.4 4.7 C 76.4 4.6 76.5 4.4 76.5 4.2 C 76.5 4 76.4 3.9 76.4 3.7 C 76.3 3.6 76.2 3.5 76 3.4 C 75.9 3.3 75.7 3.2 75.5 3.2 C 75.3 3.2 75.2 3.3 75 3.4 C 74.9 3.5 74.7 3.6 74.7 3.7 C 74.6 3.9 74.5 4 74.5 4.2 C 74.5 4.4 74.6 4.6 74.7 4.7 C 74.7 4.9 74.9 5 75 5.1 C 75.2 5.2 75.3 5.2 75.5 5.2 Z M 79.5 6.1 C 79.2 6.1 79 6.1 78.7 6 C 78.5 5.9 78.3 5.8 78.1 5.6 C 78.1 5.6 78.6 4.8 78.6 4.8 C 78.7 5 78.9 5.1 79.1 5.2 C 79.2 5.3 79.4 5.3 79.5 5.3 C 79.6 5.3 79.7 5.3 79.8 5.3 C 79.9 5.3 79.9 5.2 79.9 5.2 C 80 5.1 80 5 80 5 C 80 4.9 80 4.8 79.9 4.7 C 79.9 4.7 79.8 4.6 79.7 4.6 C 79.6 4.5 79.4 4.5 79.3 4.4 C 79.1 4.3 79 4.3 78.8 4.2 C 78.7 4.1 78.6 4 78.5 3.9 C 78.4 3.8 78.4 3.6 78.4 3.5 C 78.4 3.2 78.5 3 78.6 2.9 C 78.7 2.7 78.9 2.6 79.1 2.5 C 79.3 2.4 79.6 2.3 79.9 2.3 C 80 2.3 80.2 2.4 80.4 2.4 C 80.6 2.5 80.8 2.5 81 2.7 C 81 2.7 80.7 3.3 80.7 3.3 C 80.4 3.2 80.1 3.1 79.9 3.1 C 79.7 3.1 79.6 3.1 79.5 3.1 C 79.5 3.2 79.4 3.3 79.4 3.4 C 79.4 3.4 79.5 3.5 79.5 3.6 C 79.6 3.6 79.7 3.7 79.9 3.7 C 80 3.8 80.1 3.8 80.2 3.9 C 80.4 3.9 80.5 4 80.7 4.1 C 80.8 4.2 80.9 4.3 81 4.4 C 81.1 4.5 81.1 4.7 81.1 4.9 C 81.1 5.2 81.1 5.4 80.9 5.6 C 80.8 5.8 80.6 5.9 80.4 6 C 80.2 6.1 79.9 6.1 79.5 6.1 Z M 85.1 7.7 C 84.7 7.7 84.3 7.6 83.9 7.5 C 83.5 7.3 83.2 7.1 82.9 6.9 C 82.6 6.6 82.4 6.3 82.2 5.9 C 82.1 5.6 82 5.2 82 4.7 C 82 4.3 82.1 3.9 82.2 3.5 C 82.4 3.1 82.6 2.8 82.9 2.6 C 83.2 2.3 83.5 2.1 83.9 1.9 C 84.3 1.8 84.7 1.7 85.1 1.7 C 85.5 1.7 85.9 1.8 86.2 1.9 C 86.6 2 86.9 2.2 87.2 2.5 C 87.5 2.7 87.7 3 87.8 3.4 C 88 3.7 88.1 4.1 88.1 4.5 C 88.1 4.8 88 5 88 5.2 C 87.9 5.4 87.8 5.5 87.7 5.6 C 87.5 5.8 87.4 5.8 87.3 5.9 C 87.1 5.9 86.9 6 86.8 6 C 86.6 6 86.4 5.9 86.3 5.9 C 86.1 5.8 86 5.7 85.9 5.6 C 85.8 5.8 85.6 5.9 85.5 6 C 85.3 6.1 85.1 6.2 84.9 6.2 C 84.6 6.2 84.4 6.1 84.2 6 C 84 5.9 83.8 5.7 83.7 5.5 C 83.6 5.3 83.5 5 83.5 4.8 C 83.5 4.5 83.6 4.2 83.7 4 C 83.8 3.8 84 3.6 84.2 3.5 C 84.4 3.4 84.6 3.3 84.9 3.3 C 85.1 3.3 85.3 3.4 85.4 3.4 C 85.6 3.5 85.7 3.6 85.8 3.8 C 85.84 3.76 85.8 3.4 85.8 3.4 L 86.5 3.4 C 86.5 3.4 86.52 4.89 86.5 4.9 C 86.5 5 86.5 5 86.5 5.1 C 86.6 5.2 86.6 5.2 86.7 5.3 C 86.7 5.3 86.8 5.3 86.9 5.3 C 87 5.3 87.1 5.3 87.1 5.3 C 87.2 5.2 87.3 5.1 87.3 5 C 87.3 4.9 87.4 4.7 87.4 4.5 C 87.4 4.2 87.3 3.9 87.2 3.6 C 87 3.4 86.9 3.2 86.6 3 C 86.4 2.8 86.2 2.7 85.9 2.6 C 85.6 2.5 85.4 2.5 85.1 2.5 C 84.8 2.5 84.5 2.6 84.2 2.7 C 83.9 2.8 83.7 3 83.5 3.2 C 83.3 3.4 83.1 3.6 83 3.9 C 82.9 4.1 82.9 4.4 82.9 4.7 C 82.9 5 82.9 5.3 83 5.5 C 83.2 5.8 83.3 6 83.5 6.2 C 83.7 6.4 83.9 6.6 84.2 6.7 C 84.5 6.8 84.8 6.8 85.1 6.8 C 85.4 6.8 85.7 6.8 86 6.7 C 86.2 6.6 86.4 6.4 86.5 6.3 C 86.5 6.3 87.2 6.8 87.2 6.8 C 87.1 6.9 86.9 7.1 86.8 7.2 C 86.6 7.4 86.3 7.5 86 7.6 C 85.8 7.7 85.4 7.7 85.1 7.7 Z M 85.1 5.5 C 85.2 5.5 85.4 5.5 85.5 5.4 C 85.6 5.4 85.7 5.3 85.7 5.2 C 85.8 5 85.8 4.9 85.8 4.7 C 85.8 4.6 85.8 4.5 85.7 4.3 C 85.7 4.2 85.6 4.1 85.5 4.1 C 85.3 4 85.2 4 85.1 4 C 84.9 4 84.8 4 84.7 4.1 C 84.6 4.1 84.5 4.2 84.4 4.3 C 84.3 4.5 84.3 4.6 84.3 4.8 C 84.3 4.9 84.3 5 84.4 5.2 C 84.5 5.3 84.6 5.4 84.7 5.4 C 84.8 5.5 84.9 5.5 85.1 5.5 Z M 90.9 6.1 C 90.5 6.1 90.1 6 89.8 5.9 C 89.5 5.7 89.3 5.5 89.1 5.2 C 88.9 4.9 88.8 4.6 88.8 4.2 C 88.8 4 88.9 3.7 89 3.5 C 89.1 3.3 89.2 3 89.4 2.9 C 89.6 2.7 89.8 2.6 90 2.5 C 90.3 2.4 90.5 2.3 90.8 2.3 C 91.2 2.3 91.5 2.4 91.8 2.6 C 92.1 2.7 92.3 2.9 92.5 3.2 C 92.6 3.5 92.7 3.8 92.7 4.2 C 92.7 4.2 92.7 4.2 92.7 4.2 C 92.7 4.3 92.7 4.3 92.7 4.4 C 92.7 4.4 89.9 4.4 89.9 4.4 C 89.9 4.5 90 4.7 90 4.8 C 90.1 5 90.2 5.1 90.4 5.2 C 90.5 5.2 90.7 5.3 90.9 5.3 C 91.1 5.3 91.3 5.2 91.4 5.2 C 91.6 5.1 91.7 5 91.8 4.8 C 91.8 4.8 92.6 5.2 92.6 5.2 C 92.4 5.5 92.2 5.7 91.9 5.9 C 91.6 6.1 91.2 6.1 90.9 6.1 Z M 90 3.8 C 90 3.8 91.6 3.8 91.6 3.8 C 91.6 3.6 91.6 3.5 91.5 3.4 C 91.4 3.3 91.3 3.2 91.2 3.2 C 91.1 3.1 90.9 3.1 90.8 3.1 C 90.6 3.1 90.5 3.1 90.4 3.2 C 90.3 3.2 90.2 3.3 90.1 3.4 C 90 3.5 90 3.6 90 3.8 Z M 95.1 6.1 C 94.8 6.1 94.5 6.1 94.3 5.9 C 94 5.7 93.8 5.5 93.6 5.2 C 93.5 4.9 93.4 4.6 93.4 4.2 C 93.4 3.9 93.5 3.5 93.6 3.3 C 93.8 3 94 2.7 94.2 2.6 C 94.5 2.4 94.8 2.3 95.2 2.3 C 95.4 2.3 95.7 2.4 95.9 2.5 C 96.1 2.6 96.3 2.7 96.4 2.9 C 96.41 2.87 96.4 0 96.4 0 L 97.5 0 L 97.5 6 L 96.4 6 C 96.4 6 96.41 5.55 96.4 5.5 C 96.2 5.7 96.1 5.9 95.8 6 C 95.6 6.1 95.4 6.1 95.1 6.1 Z M 95.5 5.2 C 95.7 5.2 95.8 5.2 96 5.1 C 96.1 5 96.2 4.9 96.3 4.7 C 96.4 4.6 96.4 4.4 96.4 4.2 C 96.4 4 96.4 3.9 96.3 3.7 C 96.2 3.6 96.1 3.5 96 3.4 C 95.8 3.3 95.7 3.2 95.5 3.2 C 95.3 3.2 95.1 3.3 95 3.4 C 94.8 3.5 94.7 3.6 94.6 3.7 C 94.6 3.9 94.5 4 94.5 4.2 C 94.5 4.4 94.6 4.6 94.6 4.7 C 94.7 4.9 94.8 5 95 5.1 C 95.1 5.2 95.3 5.2 95.5 5.2 Z M 100.5 6.1 C 99.8 6.1 99.4 6 99.1 5.7 C 98.8 5.5 98.7 5.1 98.7 4.5 C 98.65 4.47 98.7 2.4 98.7 2.4 L 99.7 2.4 C 99.7 2.4 99.73 4.22 99.7 4.2 C 99.7 4.6 99.8 4.9 99.9 5 C 100 5.2 100.2 5.3 100.5 5.3 C 100.8 5.3 101 5.2 101.1 5 C 101.2 4.9 101.3 4.6 101.3 4.2 C 101.28 4.22 101.3 2.4 101.3 2.4 L 102.3 2.4 C 102.3 2.4 102.35 4.47 102.3 4.5 C 102.3 5.1 102.2 5.5 101.9 5.7 C 101.6 6 101.2 6.1 100.5 6.1 Z M 105.2 6.1 C 104.9 6.1 104.7 6.1 104.4 6 C 104.2 5.9 104 5.8 103.8 5.6 C 103.6 5.4 103.5 5.2 103.4 5 C 103.3 4.7 103.2 4.5 103.2 4.2 C 103.2 4 103.3 3.7 103.4 3.5 C 103.5 3.3 103.6 3.1 103.8 2.9 C 104 2.7 104.2 2.6 104.4 2.5 C 104.7 2.4 104.9 2.3 105.2 2.3 C 105.4 2.3 105.7 2.4 105.9 2.4 C 106.1 2.5 106.3 2.6 106.4 2.7 C 106.4 2.7 106 3.4 106 3.4 C 105.8 3.3 105.6 3.2 105.4 3.2 C 105.1 3.2 105 3.3 104.8 3.4 C 104.6 3.5 104.5 3.6 104.5 3.7 C 104.4 3.9 104.3 4.1 104.3 4.2 C 104.3 4.4 104.4 4.6 104.5 4.7 C 104.5 4.9 104.7 5 104.8 5.1 C 105 5.2 105.2 5.2 105.4 5.2 C 105.5 5.2 105.6 5.2 105.7 5.2 C 105.8 5.2 105.9 5.1 106 5.1 C 106 5.1 106.4 5.8 106.4 5.8 C 106.3 5.9 106.1 6 105.9 6 C 105.7 6.1 105.4 6.1 105.2 6.1 Z M 108.7 6.1 C 108.4 6.1 108.1 6 107.8 5.9 C 107.5 5.7 107.3 5.5 107.2 5.2 C 107 4.9 106.9 4.6 106.9 4.2 C 106.9 3.9 107 3.5 107.2 3.3 C 107.3 3 107.5 2.7 107.8 2.6 C 108.1 2.4 108.4 2.3 108.7 2.3 C 109 2.3 109.2 2.4 109.4 2.5 C 109.6 2.6 109.8 2.7 110 2.9 C 109.97 2.87 110 2.4 110 2.4 L 111 2.4 L 111 6 L 110 6 C 110 6 109.97 5.55 110 5.5 C 109.8 5.7 109.6 5.9 109.4 6 C 109.2 6.1 109 6.1 108.7 6.1 Z M 109 5.2 C 109.2 5.2 109.4 5.2 109.5 5.1 C 109.7 5 109.8 4.9 109.9 4.7 C 109.9 4.6 110 4.4 110 4.2 C 110 4 109.9 3.9 109.9 3.7 C 109.8 3.6 109.7 3.5 109.5 3.4 C 109.4 3.3 109.2 3.2 109 3.2 C 108.8 3.2 108.7 3.3 108.5 3.4 C 108.4 3.5 108.3 3.6 108.2 3.7 C 108.1 3.9 108.1 4 108.1 4.2 C 108.1 4.4 108.1 4.6 108.2 4.7 C 108.3 4.9 108.4 5 108.5 5.1 C 108.7 5.2 108.8 5.2 109 5.2 Z M 114 6.1 C 113.7 6.1 113.4 6.1 113.2 6 C 113 5.9 112.8 5.8 112.6 5.6 C 112.4 5.4 112.2 5.2 112.1 5 C 112 4.7 112 4.5 112 4.2 C 112 4 112 3.7 112.1 3.5 C 112.2 3.3 112.4 3.1 112.5 2.9 C 112.7 2.7 112.9 2.6 113.2 2.5 C 113.4 2.4 113.7 2.3 114 2.3 C 114.2 2.3 114.4 2.4 114.6 2.4 C 114.9 2.5 115 2.6 115.2 2.7 C 115.2 2.7 114.8 3.4 114.8 3.4 C 114.6 3.3 114.4 3.2 114.1 3.2 C 113.9 3.2 113.7 3.3 113.6 3.4 C 113.4 3.5 113.3 3.6 113.2 3.7 C 113.1 3.9 113.1 4.1 113.1 4.2 C 113.1 4.4 113.1 4.6 113.2 4.7 C 113.3 4.9 113.4 5 113.6 5.1 C 113.8 5.2 113.9 5.2 114.1 5.2 C 114.3 5.2 114.4 5.2 114.5 5.2 C 114.6 5.2 114.7 5.1 114.8 5.1 C 114.8 5.1 115.2 5.8 115.2 5.8 C 115 5.9 114.9 6 114.6 6 C 114.4 6.1 114.2 6.1 114 6.1 Z M 116 6 L 116 2.4 L 117.1 2.4 L 117.1 6 L 116 6 Z M 116.5 1.7 C 116.4 1.7 116.3 1.7 116.2 1.6 C 116.1 1.5 116.1 1.5 116 1.4 C 115.9 1.3 115.9 1.2 115.9 1 C 115.9 0.9 115.9 0.8 116 0.7 C 116.1 0.6 116.1 0.6 116.2 0.5 C 116.3 0.4 116.4 0.4 116.5 0.4 C 116.7 0.4 116.8 0.4 116.9 0.5 C 117 0.6 117 0.6 117.1 0.7 C 117.2 0.8 117.2 0.9 117.2 1 C 117.2 1.2 117.2 1.3 117.1 1.4 C 117 1.5 117 1.5 116.9 1.6 C 116.8 1.7 116.7 1.7 116.5 1.7 Z M 120.1 6.1 C 119.7 6.1 119.4 6.1 119.1 5.9 C 118.8 5.7 118.5 5.5 118.3 5.2 C 118.1 4.9 118 4.6 118 4.2 C 118 3.9 118.1 3.5 118.3 3.2 C 118.5 3 118.7 2.7 119.1 2.6 C 119.4 2.4 119.7 2.3 120.1 2.3 C 120.5 2.3 120.9 2.4 121.2 2.6 C 121.5 2.7 121.8 3 122 3.2 C 122.1 3.5 122.2 3.9 122.2 4.2 C 122.2 4.6 122.1 4.9 122 5.2 C 121.8 5.5 121.5 5.7 121.2 5.9 C 120.9 6.1 120.5 6.1 120.1 6.1 Z M 120.1 5.2 C 120.3 5.2 120.5 5.2 120.6 5.1 C 120.8 5 120.9 4.9 121 4.7 C 121.1 4.6 121.1 4.4 121.1 4.2 C 121.1 4 121.1 3.9 121 3.7 C 120.9 3.6 120.8 3.5 120.6 3.4 C 120.5 3.3 120.3 3.2 120.1 3.2 C 120 3.2 119.8 3.3 119.6 3.4 C 119.5 3.5 119.4 3.6 119.3 3.7 C 119.2 3.9 119.2 4 119.2 4.2 C 119.2 4.4 119.2 4.6 119.3 4.7 C 119.4 4.9 119.5 5 119.6 5.1 C 119.8 5.2 120 5.2 120.1 5.2 Z M 123.2 6 L 123.2 2.4 L 124.3 2.4 C 124.3 2.4 124.25 2.83 124.3 2.8 C 124.4 2.7 124.6 2.6 124.8 2.5 C 125 2.4 125.2 2.3 125.5 2.3 C 125.7 2.3 126 2.4 126.2 2.5 C 126.4 2.6 126.6 2.8 126.7 3 C 126.8 3.2 126.8 3.5 126.8 3.8 C 126.85 3.75 126.8 6 126.8 6 L 125.8 6 C 125.8 6 125.78 3.98 125.8 4 C 125.8 3.7 125.7 3.5 125.6 3.4 C 125.4 3.2 125.3 3.2 125 3.2 C 124.9 3.2 124.7 3.2 124.6 3.3 C 124.5 3.3 124.4 3.4 124.3 3.5 C 124.3 3.6 124.3 3.8 124.3 3.9 C 124.25 3.9 124.3 6 124.3 6 L 123.2 6 Z M 130.4 6.1 C 130.1 6.1 129.9 6.1 129.7 6 C 129.5 5.9 129.3 5.7 129.1 5.5 C 129.12 5.55 129.1 6 129.1 6 L 128 6 L 128 0 L 129.1 0 C 129.1 0 129.12 2.87 129.1 2.9 C 129.3 2.7 129.4 2.6 129.7 2.5 C 129.9 2.4 130.1 2.3 130.3 2.3 C 130.7 2.3 131 2.4 131.3 2.6 C 131.5 2.7 131.8 3 131.9 3.3 C 132.1 3.5 132.1 3.9 132.1 4.2 C 132.1 4.6 132.1 4.9 131.9 5.2 C 131.7 5.5 131.5 5.7 131.3 5.9 C 131 6.1 130.7 6.1 130.4 6.1 Z M 130.1 5.2 C 130.2 5.2 130.4 5.2 130.6 5.1 C 130.7 5 130.8 4.9 130.9 4.7 C 131 4.6 131 4.4 131 4.2 C 131 4 131 3.9 130.9 3.7 C 130.8 3.6 130.7 3.5 130.5 3.4 C 130.4 3.3 130.2 3.2 130.1 3.2 C 129.9 3.2 129.7 3.3 129.6 3.4 C 129.4 3.5 129.3 3.6 129.2 3.7 C 129.1 3.9 129.1 4 129.1 4.2 C 129.1 4.4 129.1 4.6 129.2 4.7 C 129.3 4.9 129.4 5 129.6 5.1 C 129.7 5.2 129.9 5.2 130.1 5.2 Z M 134.9 6.1 C 134.5 6.1 134.2 6.1 133.8 5.9 C 133.5 5.7 133.3 5.5 133.1 5.2 C 132.9 4.9 132.8 4.6 132.8 4.2 C 132.8 3.9 132.9 3.5 133.1 3.2 C 133.3 3 133.5 2.7 133.8 2.6 C 134.2 2.4 134.5 2.3 134.9 2.3 C 135.3 2.3 135.7 2.4 136 2.6 C 136.3 2.7 136.6 3 136.7 3.2 C 136.9 3.5 137 3.9 137 4.2 C 137 4.6 136.9 4.9 136.7 5.2 C 136.6 5.5 136.3 5.7 136 5.9 C 135.7 6.1 135.3 6.1 134.9 6.1 Z M 134.9 5.2 C 135.1 5.2 135.3 5.2 135.4 5.1 C 135.6 5 135.7 4.9 135.8 4.7 C 135.9 4.6 135.9 4.4 135.9 4.2 C 135.9 4 135.9 3.9 135.8 3.7 C 135.7 3.6 135.6 3.5 135.4 3.4 C 135.3 3.3 135.1 3.2 134.9 3.2 C 134.7 3.2 134.6 3.3 134.4 3.4 C 134.3 3.5 134.2 3.6 134.1 3.7 C 134 3.9 133.9 4 133.9 4.2 C 133.9 4.4 134 4.6 134.1 4.7 C 134.2 4.9 134.3 5 134.4 5.1 C 134.6 5.2 134.7 5.2 134.9 5.2 Z M 139.7 7.9 C 139.2 7.9 138.8 7.9 138.5 7.7 C 138.2 7.5 137.9 7.2 137.8 6.9 C 137.8 6.9 138.6 6.5 138.6 6.5 C 138.7 6.6 138.9 6.8 139.1 6.9 C 139.3 7 139.5 7 139.7 7 C 139.9 7 140.1 7 140.2 6.9 C 140.4 6.8 140.5 6.7 140.6 6.6 C 140.7 6.4 140.7 6.2 140.7 6.1 C 140.7 6.1 140.7 5.5 140.7 5.5 C 140.6 5.7 140.4 5.9 140.2 6 C 139.9 6.1 139.7 6.1 139.5 6.1 C 139.1 6.1 138.8 6.1 138.6 5.9 C 138.3 5.7 138.1 5.5 137.9 5.2 C 137.8 4.9 137.7 4.6 137.7 4.2 C 137.7 3.9 137.8 3.5 137.9 3.3 C 138.1 3 138.3 2.7 138.6 2.6 C 138.8 2.4 139.1 2.3 139.5 2.3 C 139.7 2.3 140 2.4 140.2 2.5 C 140.4 2.6 140.6 2.7 140.7 2.9 C 140.72 2.87 140.7 2.4 140.7 2.4 L 141.8 2.4 C 141.8 2.4 141.79 6.12 141.8 6.1 C 141.8 6.5 141.7 6.8 141.6 7.1 C 141.4 7.3 141.2 7.6 140.9 7.7 C 140.6 7.9 140.2 7.9 139.7 7.9 Z M 139.8 5.2 C 140 5.2 140.1 5.2 140.3 5.1 C 140.4 5 140.5 4.9 140.6 4.7 C 140.7 4.6 140.7 4.4 140.7 4.2 C 140.7 4 140.7 3.9 140.6 3.7 C 140.5 3.6 140.4 3.5 140.3 3.4 C 140.1 3.3 140 3.2 139.8 3.2 C 139.6 3.2 139.4 3.3 139.3 3.4 C 139.1 3.5 139 3.6 138.9 3.7 C 138.9 3.9 138.8 4 138.8 4.2 C 138.8 4.4 138.9 4.6 138.9 4.7 C 139 4.9 139.1 5 139.3 5.1 C 139.4 5.2 139.6 5.2 139.8 5.2 Z M 144.8 6.1 C 144.4 6.1 144.1 6.1 143.7 5.9 C 143.4 5.7 143.2 5.5 143 5.2 C 142.8 4.9 142.7 4.6 142.7 4.2 C 142.7 3.9 142.8 3.5 143 3.2 C 143.2 3 143.4 2.7 143.7 2.6 C 144.1 2.4 144.4 2.3 144.8 2.3 C 145.2 2.3 145.6 2.4 145.9 2.6 C 146.2 2.7 146.4 3 146.6 3.2 C 146.8 3.5 146.9 3.9 146.9 4.2 C 146.9 4.6 146.8 4.9 146.6 5.2 C 146.4 5.5 146.2 5.7 145.9 5.9 C 145.6 6.1 145.2 6.1 144.8 6.1 Z M 144.8 5.2 C 145 5.2 145.2 5.2 145.3 5.1 C 145.5 5 145.6 4.9 145.7 4.7 C 145.7 4.6 145.8 4.4 145.8 4.2 C 145.8 4 145.7 3.9 145.7 3.7 C 145.6 3.6 145.5 3.5 145.3 3.4 C 145.2 3.3 145 3.2 144.8 3.2 C 144.6 3.2 144.5 3.3 144.3 3.4 C 144.2 3.5 144 3.6 144 3.7 C 143.9 3.9 143.8 4 143.8 4.2 C 143.8 4.4 143.9 4.6 144 4.7 C 144 4.9 144.2 5 144.3 5.1 C 144.5 5.2 144.6 5.2 144.8 5.2 Z M 149.1 6.1 C 148.7 6.1 148.4 6 148.2 5.8 C 148 5.6 147.9 5.2 147.9 4.8 C 147.93 4.84 147.9 3.3 147.9 3.3 L 147.5 3.3 L 147.5 2.4 L 147.9 2.4 L 147.9 1.1 L 149 1.1 L 149 2.4 L 149.8 2.4 L 149.8 3.3 L 149 3.3 C 149 3.3 149.01 4.76 149 4.8 C 149 4.9 149 5 149.1 5.1 C 149.1 5.1 149.2 5.2 149.3 5.2 C 149.4 5.2 149.5 5.1 149.6 5.1 C 149.6 5.1 149.9 5.9 149.9 5.9 C 149.8 6 149.7 6 149.5 6.1 C 149.4 6.1 149.2 6.1 149.1 6.1 Z M 152.3 6.1 C 152 6.1 151.7 6 151.4 5.9 C 151.2 5.7 150.9 5.5 150.8 5.2 C 150.6 4.9 150.5 4.6 150.5 4.2 C 150.5 3.9 150.6 3.5 150.8 3.3 C 150.9 3 151.1 2.7 151.4 2.6 C 151.7 2.4 152 2.3 152.3 2.3 C 152.6 2.3 152.8 2.4 153 2.5 C 153.3 2.6 153.4 2.7 153.6 2.9 C 153.58 2.87 153.6 2.4 153.6 2.4 L 154.6 2.4 L 154.6 6 L 153.6 6 C 153.6 6 153.58 5.55 153.6 5.5 C 153.4 5.7 153.2 5.9 153 6 C 152.8 6.1 152.6 6.1 152.3 6.1 Z M 152.6 5.2 C 152.8 5.2 153 5.2 153.1 5.1 C 153.3 5 153.4 4.9 153.5 4.7 C 153.6 4.6 153.6 4.4 153.6 4.2 C 153.6 4 153.6 3.9 153.5 3.7 C 153.4 3.6 153.3 3.5 153.1 3.4 C 153 3.3 152.8 3.2 152.6 3.2 C 152.5 3.2 152.3 3.3 152.1 3.4 C 152 3.5 151.9 3.6 151.8 3.7 C 151.7 3.9 151.7 4 151.7 4.2 C 151.7 4.4 151.7 4.6 151.8 4.7 C 151.9 4.9 152 5 152.1 5.1 C 152.3 5.2 152.5 5.2 152.6 5.2 Z M 156.7 6.1 C 156.6 6.1 156.5 6.1 156.3 6 C 156.2 6 156.2 5.9 156.1 5.8 C 156 5.7 156 5.6 156 5.4 C 156 5.3 156 5.2 156.1 5.1 C 156.2 5 156.2 4.9 156.4 4.8 C 156.5 4.8 156.6 4.7 156.7 4.7 C 156.8 4.7 157 4.8 157.1 4.8 C 157.2 4.9 157.2 5 157.3 5.1 C 157.4 5.2 157.4 5.3 157.4 5.4 C 157.4 5.6 157.4 5.7 157.3 5.8 C 157.2 5.9 157.2 6 157.1 6 C 157 6.1 156.8 6.1 156.7 6.1 Z M 160.5 7.9 C 160 7.9 159.6 7.9 159.3 7.7 C 158.9 7.5 158.7 7.2 158.6 6.9 C 158.6 6.9 159.4 6.5 159.4 6.5 C 159.5 6.6 159.7 6.8 159.9 6.9 C 160.1 7 160.3 7 160.5 7 C 160.7 7 160.9 7 161 6.9 C 161.2 6.8 161.3 6.7 161.4 6.6 C 161.5 6.4 161.5 6.2 161.5 6.1 C 161.5 6.1 161.5 5.5 161.5 5.5 C 161.4 5.7 161.2 5.9 161 6 C 160.7 6.1 160.5 6.1 160.3 6.1 C 159.9 6.1 159.6 6.1 159.4 5.9 C 159.1 5.7 158.9 5.5 158.7 5.2 C 158.6 4.9 158.5 4.6 158.5 4.2 C 158.5 3.9 158.6 3.5 158.7 3.3 C 158.9 3 159.1 2.7 159.4 2.6 C 159.6 2.4 159.9 2.3 160.3 2.3 C 160.5 2.3 160.8 2.4 161 2.5 C 161.2 2.6 161.4 2.7 161.5 2.9 C 161.52 2.87 161.5 2.4 161.5 2.4 L 162.6 2.4 C 162.6 2.4 162.59 6.12 162.6 6.1 C 162.6 6.5 162.5 6.8 162.4 7.1 C 162.2 7.3 162 7.6 161.7 7.7 C 161.4 7.9 161 7.9 160.5 7.9 Z M 160.6 5.2 C 160.8 5.2 160.9 5.2 161.1 5.1 C 161.2 5 161.3 4.9 161.4 4.7 C 161.5 4.6 161.5 4.4 161.5 4.2 C 161.5 4 161.5 3.9 161.4 3.7 C 161.3 3.6 161.2 3.5 161.1 3.4 C 160.9 3.3 160.8 3.2 160.6 3.2 C 160.4 3.2 160.2 3.3 160.1 3.4 C 159.9 3.5 159.8 3.6 159.7 3.7 C 159.7 3.9 159.6 4 159.6 4.2 C 159.6 4.4 159.7 4.6 159.7 4.7 C 159.8 4.9 159.9 5 160.1 5.1 C 160.2 5.2 160.4 5.2 160.6 5.2 Z M 165.6 6.1 C 165.2 6.1 164.9 6.1 164.5 5.9 C 164.2 5.7 164 5.5 163.8 5.2 C 163.6 4.9 163.5 4.6 163.5 4.2 C 163.5 3.9 163.6 3.5 163.8 3.2 C 164 3 164.2 2.7 164.5 2.6 C 164.9 2.4 165.2 2.3 165.6 2.3 C 166 2.3 166.4 2.4 166.7 2.6 C 167 2.7 167.2 3 167.4 3.2 C 167.6 3.5 167.7 3.9 167.7 4.2 C 167.7 4.6 167.6 4.9 167.4 5.2 C 167.2 5.5 167 5.7 166.7 5.9 C 166.4 6.1 166 6.1 165.6 6.1 Z M 165.6 5.2 C 165.8 5.2 166 5.2 166.1 5.1 C 166.3 5 166.4 4.9 166.5 4.7 C 166.5 4.6 166.6 4.4 166.6 4.2 C 166.6 4 166.5 3.9 166.5 3.7 C 166.4 3.6 166.3 3.5 166.1 3.4 C 166 3.3 165.8 3.2 165.6 3.2 C 165.4 3.2 165.3 3.3 165.1 3.4 C 165 3.5 164.8 3.6 164.8 3.7 C 164.7 3.9 164.6 4 164.6 4.2 C 164.6 4.4 164.7 4.6 164.8 4.7 C 164.8 4.9 165 5 165.1 5.1 C 165.3 5.2 165.4 5.2 165.6 5.2 Z M 169.8 6 L 167.9 2.4 L 169.2 2.4 L 170.2 4.6 L 171.2 2.4 L 172.4 2.4 L 170.5 6 L 169.8 6 Z M 173.5 6.1 C 173.4 6.1 173.2 6.1 173.1 6 C 173 6 172.9 5.9 172.9 5.8 C 172.8 5.7 172.8 5.6 172.8 5.4 C 172.8 5.3 172.8 5.2 172.9 5.1 C 172.9 5 173 4.9 173.1 4.8 C 173.2 4.8 173.4 4.7 173.5 4.7 C 173.6 4.7 173.7 4.8 173.8 4.8 C 174 4.9 174 5 174.1 5.1 C 174.2 5.2 174.2 5.3 174.2 5.4 C 174.2 5.6 174.2 5.7 174.1 5.8 C 174 5.9 174 6 173.8 6 C 173.7 6.1 173.6 6.1 173.5 6.1 Z M 177.2 6.1 C 177 6.1 176.7 6.1 176.5 6 C 176.2 5.9 176 5.8 175.8 5.6 C 175.6 5.4 175.5 5.2 175.4 5 C 175.3 4.7 175.2 4.5 175.2 4.2 C 175.2 4 175.3 3.7 175.4 3.5 C 175.5 3.3 175.6 3.1 175.8 2.9 C 176 2.7 176.2 2.6 176.4 2.5 C 176.7 2.4 176.9 2.3 177.2 2.3 C 177.5 2.3 177.7 2.4 177.9 2.4 C 178.1 2.5 178.3 2.6 178.4 2.7 C 178.4 2.7 178 3.4 178 3.4 C 177.9 3.3 177.7 3.2 177.4 3.2 C 177.2 3.2 177 3.3 176.8 3.4 C 176.7 3.5 176.6 3.6 176.5 3.7 C 176.4 3.9 176.4 4.1 176.4 4.2 C 176.4 4.4 176.4 4.6 176.5 4.7 C 176.6 4.9 176.7 5 176.9 5.1 C 177 5.2 177.2 5.2 177.4 5.2 C 177.5 5.2 177.7 5.2 177.8 5.2 C 177.9 5.2 178 5.1 178 5.1 C 178 5.1 178.4 5.8 178.4 5.8 C 178.3 5.9 178.1 6 177.9 6 C 177.7 6.1 177.5 6.1 177.2 6.1 Z M 181.1 6.1 C 180.7 6.1 180.3 6.1 180 5.9 C 179.7 5.7 179.4 5.5 179.2 5.2 C 179.1 4.9 179 4.6 179 4.2 C 179 3.9 179.1 3.5 179.2 3.2 C 179.4 3 179.7 2.7 180 2.6 C 180.3 2.4 180.7 2.3 181.1 2.3 C 181.5 2.3 181.8 2.4 182.1 2.6 C 182.5 2.7 182.7 3 182.9 3.2 C 183.1 3.5 183.2 3.9 183.2 4.2 C 183.2 4.6 183.1 4.9 182.9 5.2 C 182.7 5.5 182.5 5.7 182.1 5.9 C 181.8 6.1 181.5 6.1 181.1 6.1 Z M 181.1 5.2 C 181.3 5.2 181.4 5.2 181.6 5.1 C 181.7 5 181.8 4.9 181.9 4.7 C 182 4.6 182.1 4.4 182.1 4.2 C 182.1 4 182 3.9 181.9 3.7 C 181.8 3.6 181.7 3.5 181.6 3.4 C 181.4 3.3 181.3 3.2 181.1 3.2 C 180.9 3.2 180.7 3.3 180.6 3.4 C 180.4 3.5 180.3 3.6 180.2 3.7 C 180.1 3.9 180.1 4 180.1 4.2 C 180.1 4.4 180.1 4.6 180.2 4.7 C 180.3 4.9 180.4 5 180.6 5.1 C 180.7 5.2 180.9 5.2 181.1 5.2 Z " stroke="none" fill="#ff6800"/>  </g></svg>